<?xml version="1.0" encoding="UTF-8"?>
<svg version="1.1" xmlns="http://www.w3.org/2000/svg" width="256" height="256">
<path d="M0 0 C4.6447121 -0.0988803 9.28881173 -0.1714715 13.93432617 -0.21972656 C15.51451285 -0.23984186 17.09462509 -0.26713804 18.67456055 -0.30175781 C20.94598748 -0.35028343 23.21643058 -0.37296809 25.48828125 -0.390625 C26.54780754 -0.42159271 26.54780754 -0.42159271 27.6287384 -0.45318604 C32.53551425 -0.45543062 32.53551425 -0.45543062 34.8659668 1.82958984 C35.24019775 2.5458252 35.61442871 3.26206055 36 4 C36.5465625 5.02867188 37.093125 6.05734375 37.65625 7.1171875 C38.27474474 8.36786497 38.88905539 9.62061706 39.5 10.875 C40.20296669 12.29825529 40.90610157 13.72142751 41.609375 15.14453125 C41.98900391 15.91619629 42.36863281 16.68786133 42.75976562 17.48291016 C45.07569543 22.18315353 47.41264403 26.87288546 49.75 31.5625 C50.20955078 32.48981934 50.66910156 33.41713867 51.14257812 34.37255859 C53.61854178 39.34340702 56.18819564 44.2107351 59 49 C61.03631445 46.40214429 62.68241691 43.86704634 64.12890625 40.90234375 C64.71466431 39.71342529 64.71466431 39.71342529 65.31225586 38.50048828 C65.72483643 37.65470215 66.13741699 36.80891602 66.5625 35.9375 C70.48695229 27.98333912 74.52976314 20.10376449 78.68774414 12.26928711 C79.2735022 11.16532593 79.2735022 11.16532593 79.87109375 10.0390625 C80.38047485 9.08314209 80.38047485 9.08314209 80.90014648 8.10791016 C82.30110793 5.42291545 83.64560792 2.70878416 85 0 C95.89 0 106.78 0 118 0 C119.18194808 3.54584424 119.09854543 6.31102148 119.06591797 10.05419922 C119.05890869 11.12545547 119.05890869 11.12545547 119.05175781 12.21835327 C119.04125999 13.76853835 119.02859884 15.31870995 119.01403427 16.86886215 C118.99201753 19.32363873 118.97793447 21.77833815 118.96633911 24.23318481 C118.93273962 31.21269291 118.89113865 38.19207327 118.82861328 45.17138672 C118.79092935 49.44124147 118.76793116 53.71096454 118.75430679 57.98096085 C118.74625985 59.6068603 118.73266124 61.23274223 118.71337509 62.85854721 C118.68684588 65.13486654 118.67899852 67.41055678 118.67529297 69.68701172 C118.66561493 70.9814621 118.65593689 72.27591248 118.64596558 73.60958862 C119.02593509 77.24836747 119.78975578 79.11701668 122 82 C124.22857246 83.22171716 124.22857246 83.22171716 126.6875 83.8125 C127.49574219 84.04582031 128.30398437 84.27914062 129.13671875 84.51953125 C129.75160156 84.67808594 130.36648437 84.83664063 131 85 C131 86.65 131 88.3 131 90 C117.14 90 103.28 90 89 90 C88.67 88.68 88.34 87.36 88 86 C88.69867188 85.78085938 89.39734375 85.56171875 90.1171875 85.3359375 C91.02726562 85.01882812 91.93734375 84.70171875 92.875 84.375 C93.77992188 84.07335937 94.68484375 83.77171875 95.6171875 83.4609375 C98.90446099 81.44546162 99.03599701 79.68547655 100 76 C100.32260196 72.72937284 100.32260196 72.72937284 100.31884766 69.26025391 C100.32889328 68.61564209 100.3389389 67.97103027 100.34928894 67.30688477 C100.37994044 65.19678562 100.39710505 63.08681226 100.4140625 60.9765625 C100.43278874 59.50539074 100.45236322 58.03422955 100.4727478 56.56307983 C100.52392149 52.70642349 100.56362578 48.84973239 100.60089111 44.99291992 C100.64102376 41.05118311 100.69207369 37.10958907 100.7421875 33.16796875 C100.83877178 25.4454107 100.92323201 17.72278317 101 10 C97.97851823 12.84555443 96.26484037 16.01278787 94.41796875 19.6875 C94.08130692 20.34524414 93.74464508 21.00298828 93.39778137 21.68066406 C92.32222483 23.78437527 91.25454668 25.89196159 90.1875 28 C88.78748428 30.75118995 87.38436832 33.50079023 85.98046875 36.25 C85.6383284 36.92108795 85.29618805 37.5921759 84.94367981 38.28359985 C82.49612752 43.07041248 79.960062 47.80203134 77.36499023 52.51074219 C74.73886498 57.29986276 72.22960498 62.151017 69.70117188 66.9921875 C68.88525781 68.54925573 68.06550864 70.10432113 67.24169922 71.65722656 C66.3793649 73.28423406 65.52755314 74.91684492 64.68408203 76.55371094 C64.25337402 77.3687207 63.82266602 78.18373047 63.37890625 79.0234375 C62.99420166 79.76255371 62.60949707 80.50166992 62.21313477 81.26318359 C61 83 61 83 58 84 C52.88426142 74.94262677 47.8494618 65.8754109 43.25415039 56.54174805 C40.0681247 50.0870756 36.75960267 43.69804785 33.4375 37.3125 C32.87611328 36.23274902 32.31472656 35.15299805 31.73632812 34.04052734 C28.25932571 27.37012961 24.72883263 20.73492166 21.07421875 14.16015625 C20 12 20 12 20 10 C19.34 10 18.68 10 18 10 C18.08451243 18.50186591 18.1794377 27.00352553 18.28752708 35.50512123 C18.33739711 39.45308568 18.38372766 43.40102459 18.421875 47.34912109 C18.45884563 51.16179097 18.50523691 54.97424211 18.55806351 58.78672409 C18.57654506 60.23867314 18.59167589 61.69066896 18.60334396 63.14268875 C18.62031398 65.18210325 18.649373 67.2210236 18.68115234 69.26025391 C18.69447601 70.41941315 18.70779968 71.57857239 18.7215271 72.77285767 C19.0138098 76.16003776 19.68520692 78.86852098 21 82 C23.1285848 83.34944636 23.1285848 83.34944636 25.625 83.875 C26.44226563 84.09929687 27.25953125 84.32359375 28.1015625 84.5546875 C28.72804687 84.70164062 29.35453125 84.84859375 30 85 C30 86.65 30 88.3 30 90 C16.14 90 2.28 90 -12 90 C-12.33 88.68 -12.66 87.36 -13 86 C-11.5437455 85.32880451 -10.08492133 84.66318193 -8.625 84 C-7.81289063 83.62875 -7.00078125 83.2575 -6.1640625 82.875 C-4 82 -4 82 -2 82 C-0.77787655 78.17657223 -0.82665086 74.35762713 -0.79467773 70.38574219 C-0.77982834 69.24369827 -0.77982834 69.24369827 -0.76467896 68.07858276 C-0.73315224 65.56804488 -0.70834153 63.05748809 -0.68359375 60.546875 C-0.66301659 58.80380773 -0.64201992 57.06074536 -0.62062073 55.31768799 C-0.56547871 50.73433408 -0.51603477 46.15093572 -0.46777344 41.56750488 C-0.4175009 36.88871311 -0.36184488 32.20998572 -0.30664062 27.53125 C-0.19915533 18.3542217 -0.09768903 9.17713744 0 0 Z " fill="#2648EF" transform="translate(69,83)"/>
<path d="M0 0 C0.71068697 -0.00155999 1.42137394 -0.00311998 2.15359688 -0.00472724 C4.55277662 -0.00873965 6.95189392 -0.00554668 9.35107422 -0.00241089 C11.0638635 -0.00376482 12.77665249 -0.00554471 14.48944092 -0.00772095 C19.15459654 -0.01229621 23.81973015 -0.01050534 28.48488617 -0.00734186 C33.35581016 -0.00481874 38.22673219 -0.00715566 43.09765625 -0.00872803 C51.27913757 -0.01054986 59.46060989 -0.00814305 67.64208984 -0.00338745 C77.11525507 0.0020552 86.58839878 0.00029255 96.06156349 -0.00521386 C104.17958066 -0.00974459 112.29759133 -0.01039573 120.41560936 -0.00777519 C125.27091195 -0.00621219 130.1262044 -0.00601926 134.98150635 -0.00931168 C139.54504662 -0.01218981 144.10855901 -0.01021576 148.67209625 -0.00441742 C150.3519613 -0.00308951 152.03182867 -0.00348445 153.71169281 -0.00568008 C155.9950019 -0.0083904 158.27822022 -0.00501196 160.56152344 0 C162.48289627 0.00056554 162.48289627 0.00056554 164.44308472 0.0011425 C167.28076172 0.12698364 167.28076172 0.12698364 168.28076172 1.12698364 C168.38051204 3.63834469 168.41958355 6.11601779 168.40576172 8.62698364 C168.40962891 9.32952271 168.41349609 10.03206177 168.41748047 10.75588989 C168.4073755 16.00036986 168.4073755 16.00036986 167.28076172 17.12698364 C164.41808605 17.20023532 161.58004272 17.21936569 158.71826172 17.18948364 C157.91195312 17.18497192 157.10564453 17.18046021 156.27490234 17.17581177 C154.27682416 17.16398882 152.27878389 17.14605278 150.28076172 17.12698364 C150.2246875 16.18725708 150.2246875 16.18725708 150.16748047 15.22854614 C150.10173828 14.41128052 150.03599609 13.59401489 149.96826172 12.75198364 C149.88125 11.53381958 149.88125 11.53381958 149.79248047 10.29104614 C149.45085644 7.74777026 149.45085644 7.74777026 146.28076172 6.12698364 C143.71364411 5.8365579 143.71364411 5.8365579 140.79956055 5.89993286 C139.11815727 5.90015945 139.11815727 5.90015945 137.40278625 5.90039062 C136.19333847 5.9107132 134.98389069 5.92103577 133.73779297 5.93167114 C132.4990593 5.93450104 131.26032562 5.93733093 129.98405457 5.94024658 C126.69438085 5.94955178 123.40490309 5.96751573 120.11529541 5.98965454 C116.75706378 6.01013095 113.39880344 6.01925212 110.04052734 6.02932739 C103.45386199 6.05140093 96.86732789 6.08488842 90.28076172 6.12698364 C90.26814301 6.90234467 90.25552429 7.67770569 90.24252319 8.4765625 C90.17542486 12.02463082 90.0837621 15.57166632 89.99169922 19.11917114 C89.97228271 20.33886597 89.95286621 21.55856079 89.93286133 22.81521606 C89.67274948 31.87016869 88.55895161 39.13598617 82.28076172 46.12698364 C80.79576172 46.62198364 80.79576172 46.62198364 79.28076172 47.12698364 C71.03981515 35.29272617 71.26359689 23.44298818 71.375 9.40505981 C71.53972311 7.16018627 71.53972311 7.16018627 70.28076172 6.12698364 C68.58396974 6.01250475 66.88244529 5.96736947 65.18188477 5.94998169 C64.09372971 5.93714645 63.00557465 5.92431122 61.88444519 5.91108704 C60.69909683 5.9037001 59.51374847 5.89631317 58.29248047 5.88870239 C56.47765923 5.87659477 56.47765923 5.87659477 54.62617493 5.86424255 C52.05963585 5.85038144 49.49307817 5.83966841 46.92651367 5.83181763 C42.99541385 5.81460255 39.0651541 5.77073247 35.13427734 5.72659302 C32.64535126 5.716467 30.156418 5.70795062 27.66748047 5.70120239 C26.4882048 5.68369431 25.30892914 5.66618622 24.09391785 5.64814758 C22.9963063 5.65107315 21.89869476 5.65399872 20.76782227 5.65701294 C19.80265182 5.6511467 18.83748138 5.64528046 17.84306335 5.63923645 C14.50532383 6.2745922 13.3359138 7.46609359 11.28076172 10.12698364 C10.55034319 13.73721463 10.55034319 13.73721463 10.28076172 17.12698364 C9.28076172 18.12698364 9.28076172 18.12698364 5.68310547 18.22463989 C4.19479305 18.21796585 2.7064974 18.20600547 1.21826172 18.18948364 C0.45964844 18.18497192 -0.29896484 18.18046021 -1.08056641 18.17581177 C-2.96015699 18.16399044 -4.83970727 18.14605442 -6.71923828 18.12698364 C-8.24414957 15.07716106 -7.86285262 11.90575825 -7.84423828 8.56448364 C-7.84810547 7.8664563 -7.85197266 7.16842896 -7.85595703 6.44924927 C-7.8423739 -0.55285619 -6.77083599 0.00199293 0 0 Z " fill="#EE8529" transform="translate(47.71923828125,73.87301635742188)"/>
<path d="M0 0 C2.54131358 2.30283254 4.07110295 4.67313793 5.6875 7.6875 C6.12449219 8.49574219 6.56148437 9.30398437 7.01171875 10.13671875 C7.50091797 11.05904297 7.50091797 11.05904297 8 12 C8.31453125 11.46890625 8.6290625 10.9378125 8.953125 10.390625 C9.38109375 9.68421875 9.8090625 8.9778125 10.25 8.25 C10.66765625 7.55390625 11.0853125 6.8578125 11.515625 6.140625 C13.13004495 3.8124615 14.94825513 1.94652718 17 0 C17.04898438 1.15757812 17.09796875 2.31515625 17.1484375 3.5078125 C17.22351478 5.0468967 17.29906043 6.5859581 17.375 8.125 C17.4059375 8.88554687 17.436875 9.64609375 17.46875 10.4296875 C17.70283046 14.95524313 18.34101253 18.73222306 20 23 C20.495 24.485 20.495 24.485 21 26 C23.10584438 26.80563638 23.10584438 26.80563638 25.5625 27.1875 C26.38878906 27.34605469 27.21507812 27.50460938 28.06640625 27.66796875 C29.02353516 27.83232422 29.02353516 27.83232422 30 28 C30 29.65 30 31.3 30 33 C15.81 33 1.62 33 -13 33 C-13 31.35 -13 29.7 -13 28 C-12.45730469 27.82984375 -11.91460937 27.6596875 -11.35546875 27.484375 C-10.64003906 27.24203125 -9.92460938 26.9996875 -9.1875 26.75 C-8.47980469 26.51796875 -7.77210937 26.2859375 -7.04296875 26.046875 C-4.48199992 24.7345621 -3.52760816 23.42986254 -2 21 C-1.51914295 18.70824187 -1.51914295 18.70824187 -1.5234375 16.26953125 C-1.47703125 14.94211914 -1.47703125 14.94211914 -1.4296875 13.58789062 C-1.41164063 12.67201172 -1.39359375 11.75613281 -1.375 10.8125 C-1.32421652 8.98556439 -1.26973384 7.15872654 -1.2109375 5.33203125 C-1.19337402 4.52483643 -1.17581055 3.7176416 -1.15771484 2.88598633 C-1 1 -1 1 0 0 Z " fill="#ED862A" transform="translate(120,162)"/>
</svg>
